<svg version="1.1" id="Layer_1" xmlns="http://www.w3.org/2000/svg" xmlns:xlink="http://www.w3.org/1999/xlink" x="0px" y="0px"
	 width="100%" viewBox="0 0 797 600" enable-background="new 0 0 797 600" xml:space="preserve">
<path fill="#FFFFFF" opacity="1.000000" stroke="none" 
	d="
M568.000000,601.000000 
	C378.666656,601.000000 189.833328,601.000000 1.000000,601.000000 
	C1.000000,401.000000 1.000000,201.000000 1.000000,1.000000 
	C266.666656,1.000000 532.333313,1.000000 798.000000,1.000000 
	C798.000000,201.000000 798.000000,401.000000 798.000000,601.000000 
	C721.500000,601.000000 645.000000,601.000000 568.000000,601.000000 
M169.454239,298.576141 
	C161.632553,298.601532 153.807358,298.499420 145.990891,298.714478 
	C142.819122,298.801788 140.982574,297.989899 139.407715,294.936066 
	C136.541992,289.379181 130.117813,286.872955 124.063431,288.144867 
	C117.965683,289.425873 113.418297,294.210114 112.962486,300.646576 
	C112.764793,303.438110 111.788116,304.727814 109.318817,305.703217 
	C100.040222,309.368256 90.809258,313.157227 81.611237,317.020691 
	C79.119225,318.067474 77.326889,318.222748 74.919571,316.251129 
	C69.353638,311.692596 62.369709,311.911682 56.981167,316.143158 
	C51.913544,320.122620 50.190811,327.294403 52.860413,333.297943 
	C55.379025,338.961914 61.958317,342.646240 67.922836,341.732788 
	C74.552635,340.717438 79.203911,335.559204 80.428001,328.614655 
	C80.724213,326.934174 82.293617,324.809113 83.828537,324.125427 
	C93.240547,319.932800 102.770012,315.990448 112.373497,312.255615 
	C113.788139,311.705444 116.218292,312.140808 117.473969,313.071228 
	C125.659546,319.136383 134.679504,317.390320 140.067627,308.647003 
	C140.837463,307.397766 142.671722,306.078796 144.044739,306.044373 
	C153.192917,305.815063 162.350906,305.854950 171.502060,306.015167 
	C172.671570,306.035675 174.064255,307.033783 174.929855,307.970551 
	C177.051544,310.266663 178.925568,312.791626 180.880020,315.948700 
	C182.982269,319.861542 185.142822,323.744415 187.172974,327.694305 
	C190.161194,333.508240 193.056427,339.369995 195.144958,345.116150 
	C189.043518,343.580963 182.850769,342.393372 178.029663,347.822876 
	C175.939484,350.176849 174.145676,350.097198 171.501083,349.274780 
	C162.921906,346.606720 154.280640,344.131927 145.625504,341.718262 
	C142.989822,340.983276 141.606964,339.892975 141.035324,336.859863 
	C139.701019,329.779846 133.639725,325.357574 126.618767,325.582184 
	C119.742340,325.802155 114.153549,330.365753 113.089905,337.312164 
	C112.667046,340.073792 111.651024,341.250336 109.097809,342.031586 
	C100.347748,344.709076 91.641571,347.538513 82.976120,350.479279 
	C80.080574,351.461945 77.997421,351.520264 75.495674,349.075195 
	C70.528313,344.220367 63.586548,343.953491 58.064247,347.681030 
	C52.555061,351.399689 50.273640,358.099182 52.371620,364.397644 
	C54.414589,370.530914 60.533680,374.504913 67.150398,373.995636 
	C73.736076,373.488739 78.607498,368.856964 80.291725,362.172729 
	C80.707489,360.522675 82.344086,358.476044 83.886375,357.929626 
	C93.135918,354.652527 102.494049,351.667999 111.893181,348.842926 
	C113.231056,348.440826 115.410133,348.946259 116.485069,349.866547 
	C123.583282,355.943756 130.836914,355.854767 137.955856,349.539001 
	C138.982437,348.628296 140.944244,347.875580 142.153824,348.208893 
	C151.937134,350.904907 161.663605,353.815765 171.346649,356.854736 
	C172.412994,357.189392 173.586746,358.614624 173.881058,359.749237 
	C176.196899,368.676971 180.230591,371.908844 189.992233,373.097870 
	C189.956482,374.593475 190.114334,376.123657 189.854507,377.579254 
	C187.670486,389.814819 185.419388,402.038422 183.169281,414.262115 
	C181.448334,423.611206 181.884064,424.210510 191.067474,427.529083 
	C212.175385,435.156738 233.294601,442.759247 254.279343,450.714569 
	C257.223541,451.830750 260.253448,454.391510 261.858246,457.103424 
	C273.718750,477.146057 285.242157,497.388458 296.835175,517.588928 
	C299.061981,521.469055 301.623230,523.532593 306.537109,521.699707 
	C329.122253,513.275330 351.780029,505.044403 374.461945,496.883453 
	C376.358429,496.201141 378.868561,495.879944 380.687012,496.529358 
	C403.074005,504.524384 425.403748,512.681335 447.704865,520.914185 
	C454.498169,523.422058 456.016083,523.007874 459.682220,516.635864 
	C471.131104,496.737152 482.482758,476.780548 494.186768,457.032928 
	C495.791473,454.325409 498.855377,451.877075 501.800964,450.679413 
	C512.111572,446.487457 522.662842,442.886047 533.129211,439.078522 
	C544.691772,434.872131 556.265320,430.695892 567.826050,426.484619 
	C571.485352,425.151611 574.540344,423.380371 573.670837,418.600861 
	C569.814453,397.402618 565.751892,376.236481 562.344604,354.965729 
	C561.510315,349.757233 558.790649,344.578217 562.326172,338.699921 
	C574.328064,318.744965 585.795776,298.466431 597.317566,278.226135 
	C601.300354,271.229645 600.833496,270.495789 594.669678,265.431732 
	C582.982971,255.830246 571.464539,246.024155 559.813721,236.378571 
	C552.666687,230.461578 545.403625,224.684814 538.041931,217.946472 
	C538.041931,210.012466 538.041931,202.078461 538.041931,193.764069 
	C556.023499,193.764069 573.447327,193.764069 590.802368,193.764069 
	C590.802368,190.129318 590.802368,186.904083 590.802368,183.512970 
	C587.107544,183.512970 583.778198,183.531357 580.449158,183.509842 
	C564.299927,183.405411 548.150635,183.290298 531.899475,182.358490 
	C529.599976,169.643478 527.212952,156.943390 525.039185,144.206924 
	C524.009277,138.172531 522.873657,136.977310 516.641235,136.974915 
	C492.989746,136.965790 469.337860,137.032440 445.687469,136.870834 
	C443.426941,136.855392 440.710663,136.014160 438.992157,134.600525 
	C421.030853,119.825638 403.184235,104.909882 385.408997,89.910942 
	C378.788635,84.324615 377.528900,84.077278 371.504608,89.161591 
	C355.885590,102.343636 340.068237,115.303146 324.779175,128.858047 
	C318.041046,134.831909 311.184418,137.498276 301.994537,137.192688 
	C280.864868,136.490051 259.695160,137.056091 238.543182,136.904648 
	C234.006088,136.872162 231.788864,138.724442 231.050278,143.034317 
	C227.328094,164.754013 223.397919,186.439468 219.873505,208.190857 
	C218.723282,215.289505 216.087189,220.847519 209.888962,224.973465 
	C205.529617,227.875366 201.921677,231.906067 197.271088,235.177292 
	C186.287247,228.852631 177.110306,232.606354 173.852585,244.544189 
	C173.489456,245.874863 171.772064,247.353882 170.375015,247.799591 
	C161.978775,250.478302 153.456436,252.760925 145.054199,255.422134 
	C141.637009,256.504456 139.158630,256.494415 136.280304,253.651611 
	C132.184845,249.606735 126.858376,248.841476 121.454567,251.264862 
	C116.148949,253.644211 112.868576,257.784790 112.936928,263.675995 
	C112.975220,266.976044 111.528900,268.298340 108.915077,269.562622 
	C99.326859,274.200317 89.876350,279.126129 80.235222,283.647552 
	C78.716759,284.359680 76.104164,284.182190 74.642548,283.321075 
	C68.472008,279.685638 61.504288,279.809937 56.522556,284.138000 
	C51.646645,288.374115 50.226307,295.621887 53.123737,301.481689 
	C56.011093,307.321106 62.490391,310.404877 69.050056,309.061676 
	C75.609825,307.718445 79.621986,302.544525 80.440536,295.067566 
	C80.615547,293.468872 81.864410,291.344788 83.231377,290.622498 
	C93.085152,285.415710 103.051949,280.413727 113.110268,275.613678 
	C114.496704,274.952057 116.954468,275.161591 118.289116,275.984711 
	C128.094620,282.032104 138.417053,278.039795 141.362595,267.055786 
	C141.772507,265.527130 143.393539,263.653198 144.853226,263.185638 
	C153.878250,260.294739 163.017593,257.760742 171.937531,255.884445 
	C167.437180,259.960449 162.960434,264.062958 158.427414,268.102325 
	C155.803711,270.440308 155.381241,272.796844 157.301254,275.952606 
	C161.769745,283.297089 165.958038,290.812103 169.454239,298.576141 
M613.824463,188.674377 
	C613.824463,237.638687 613.808105,286.603027 613.861084,335.567261 
	C613.864624,338.865723 613.889465,342.304108 614.765198,345.436859 
	C618.145569,357.530304 628.210938,364.646118 641.804138,364.690369 
	C666.119507,364.769470 690.435242,364.717773 714.750854,364.697968 
	C716.027649,364.696930 717.304260,364.483704 718.455811,364.380463 
	C718.455811,360.791931 718.455811,357.571777 718.455811,354.157349 
	C699.094116,354.157349 680.105530,353.737854 661.147766,354.319519 
	C650.308411,354.652039 644.624939,348.032318 644.691772,338.018677 
	C645.022827,288.390381 644.842712,238.758698 644.842712,189.128204 
	C644.842712,187.373352 644.842651,185.618484 644.842651,183.688248 
	C634.247742,183.688248 624.311707,183.688248 614.110352,183.688248 
	C614.006226,185.157837 613.915344,186.439209 613.824463,188.674377 
M644.205688,413.490723 
	C644.558533,411.051392 644.099976,407.870544 645.475342,406.365845 
	C647.090332,404.598846 650.529724,403.193573 652.748474,403.662598 
	C654.838562,404.104431 657.377258,406.939453 657.923340,409.162567 
	C658.853638,412.949921 658.240173,417.094666 658.584290,421.062500 
	C658.675110,422.109192 659.897644,423.057770 660.600464,424.051392 
	C661.423279,423.410858 662.968201,422.756439 662.956177,422.131989 
	C662.848083,416.521118 663.304321,410.678558 661.813721,405.407776 
	C661.062134,402.750183 656.910217,400.280548 653.795776,399.275391 
	C650.465881,398.200714 646.534363,398.764801 642.893311,399.016357 
	C641.797119,399.092102 639.916931,400.481781 639.886841,401.322845 
	C639.643311,408.136871 639.686707,414.965271 639.852783,421.784149 
	C639.871460,422.550781 641.195984,423.285614 641.914917,424.035217 
	C642.670959,423.163116 643.942444,422.364807 644.080017,421.404175 
	C644.407227,419.119080 644.197998,416.757202 644.205688,413.490723 
M695.135559,418.255524 
	C686.836060,421.871033 682.287964,420.537079 680.423767,413.258484 
	C686.614197,413.258484 692.633545,413.258484 698.520935,413.258484 
	C699.629761,405.960754 697.201477,401.467346 691.619812,399.543488 
	C686.226440,397.684540 679.919617,400.122406 677.100952,405.155640 
	C674.054810,410.595215 675.227417,417.554810 679.842041,421.423737 
	C684.144592,425.031006 692.346741,425.482941 696.022278,422.030914 
	C696.608887,421.479950 695.935425,419.587158 695.135559,418.255524 
M599.376343,419.427765 
	C596.438721,419.427765 593.501099,419.427765 589.964539,419.427765 
	C589.964539,417.035156 589.964844,415.260345 589.964478,413.485535 
	C589.962952,406.342499 590.083130,399.195343 589.840515,392.060516 
	C589.799744,390.861694 588.189514,389.716248 587.304443,388.546143 
	C586.551941,389.644836 585.166443,390.732086 585.146362,391.844055 
	C584.972412,401.475677 584.950989,411.113770 585.163513,420.743774 
	C585.189209,421.907349 586.830200,423.979187 587.797546,424.024414 
	C593.928162,424.310852 600.083679,424.245850 606.220459,424.016235 
	C607.101074,423.983307 607.925110,422.437012 608.775330,421.591064 
	C607.946838,420.893494 607.194336,419.747375 606.274048,419.591309 
	C604.333313,419.262207 602.304688,419.451416 599.376343,419.427765 
M620.247375,409.592468 
	C620.260681,413.417297 620.090149,417.257294 620.404541,421.057220 
	C620.493347,422.130768 622.000122,423.087006 622.856567,424.097046 
	C623.597717,423.160309 624.953125,422.241394 624.980957,421.283936 
	C625.169250,414.803497 625.149231,408.313171 624.988708,401.831177 
	C624.967285,400.964050 623.775818,400.125885 623.126160,399.274323 
	C622.237915,400.073853 620.759460,400.759552 620.579041,401.695557 
	C620.144836,403.947479 620.318848,406.316650 620.247375,409.592468 
z"/>
<path fill="#F4ACBB" opacity="1.000000" stroke="none" 
	d="
M195.991272,345.211365 
	C193.056427,339.369995 190.161194,333.508240 187.172974,327.694305 
	C185.142822,323.744415 182.982269,319.861542 181.264374,315.581848 
	C184.938873,315.789062 188.229019,316.363098 191.872131,317.054230 
	C194.184448,320.311218 196.143768,323.451111 198.103088,326.591034 
	C198.540115,326.495514 198.977142,326.399994 199.414169,326.304474 
	C199.950409,320.541779 200.486649,314.779053 201.056778,308.648529 
	C201.656647,305.649200 202.222641,303.017731 203.070007,300.069977 
	C207.280533,278.124847 211.209717,256.495941 215.385559,233.509262 
	C210.320450,237.330658 206.534668,240.186844 202.494690,242.825439 
	C200.819733,240.216141 199.398972,237.824432 197.978210,235.432739 
	C201.921677,231.906067 205.529617,227.875366 209.888962,224.973465 
	C216.087189,220.847519 218.723282,215.289505 219.873505,208.190857 
	C223.397919,186.439468 227.328094,164.754013 231.050278,143.034317 
	C231.788864,138.724442 234.006088,136.872162 238.543182,136.904648 
	C259.695160,137.056091 280.864868,136.490051 301.994537,137.192688 
	C311.184418,137.498276 318.041046,134.831909 324.779175,128.858047 
	C340.068237,115.303146 355.885590,102.343636 371.504608,89.161591 
	C377.528900,84.077278 378.788635,84.324615 385.408997,89.910942 
	C403.184235,104.909882 421.030853,119.825638 438.992157,134.600525 
	C440.710663,136.014160 443.426941,136.855392 445.687469,136.870834 
	C469.337860,137.032440 492.989746,136.965790 516.641235,136.974915 
	C522.873657,136.977310 524.009277,138.172531 525.039185,144.206924 
	C527.212952,156.943390 529.599976,169.643478 531.581116,182.916916 
	C528.146484,183.378845 525.030151,183.282349 521.909180,182.829742 
	C519.788269,170.793533 517.671997,159.113419 515.526611,147.272156 
	C495.088867,147.272156 474.947052,147.272156 453.771667,147.272156 
	C468.362671,159.659668 482.205658,171.412140 495.670288,183.316849 
	C490.198761,183.405121 485.105591,183.341156 479.919617,182.986877 
	C478.829315,181.600021 477.943878,180.369293 476.816864,179.427689 
	C465.483154,169.958115 454.161865,160.471970 442.701935,151.156754 
	C440.515442,149.379456 437.745575,147.139709 435.231323,147.122742 
	C397.132690,146.865570 359.031799,146.922745 320.931702,147.014694 
	C319.268494,147.018707 317.267670,147.646988 315.999603,148.686493 
	C305.604492,157.207809 295.280579,165.819611 285.083435,174.576691 
	C281.753235,177.436569 278.861176,180.806580 275.389343,183.881134 
	C270.959290,183.818985 266.908722,183.818985 262.672577,183.818985 
	C262.492340,187.414291 262.328491,190.682922 261.859375,194.107407 
	C252.892624,201.518829 244.471222,209.089798 235.489349,215.924210 
	C228.997208,220.864151 224.783630,226.464157 224.885132,234.904160 
	C224.914551,237.350830 224.155640,239.811737 223.716110,242.258575 
	C218.178848,273.084351 212.678482,303.916931 207.041809,334.724579 
	C206.216904,339.233063 207.184509,342.966858 209.476318,346.892426 
	C226.579575,376.187714 243.622849,405.519836 260.391663,435.007202 
	C263.929749,441.228760 268.125641,445.346375 275.179382,447.815338 
	C308.273376,459.398834 341.135803,471.642883 374.133545,483.504669 
	C376.264099,484.270538 379.102325,484.544586 381.164520,483.803711 
	C415.727936,471.385681 450.251923,458.854767 484.674255,446.052063 
	C487.774841,444.898926 490.652863,442.106903 492.694763,439.374023 
	C496.434906,434.368225 499.473358,428.838135 503.167114,423.602600 
	C506.394440,424.098541 509.259064,424.518555 512.062134,425.297180 
	C509.999603,429.769714 507.998596,433.883636 505.835541,438.031464 
	C505.782867,438.044403 505.892212,438.023407 506.388885,438.003906 
	C508.825836,437.346466 510.893646,436.738953 512.922119,436.020325 
	C526.225647,431.307312 539.520630,426.570374 552.979614,422.189026 
	C556.637573,425.001343 557.113586,424.664429 558.334106,419.113434 
	C562.259644,418.682709 563.417542,417.033173 562.706787,413.324829 
	C560.278809,400.656464 558.202332,387.921112 555.924927,375.223328 
	C554.897583,369.495636 553.712524,363.796204 552.599060,358.083984 
	C552.167786,358.049408 551.736572,358.014832 551.305359,357.980286 
	C541.265198,375.313141 531.225037,392.645996 521.076538,409.625793 
	C518.930969,406.277374 516.893677,403.282013 515.155151,400.084747 
	C517.013489,397.352020 518.669189,394.874847 520.115051,392.280701 
	C525.189758,383.176147 530.192200,374.031342 535.584106,364.793030 
	C536.677612,363.134064 537.409180,361.583893 538.430542,359.858917 
	C543.898193,350.329407 552.214172,341.996063 547.960999,329.652771 
	C546.892456,326.551605 546.630188,323.169495 546.030090,319.910461 
	C543.399353,305.622040 540.780579,291.331390 538.072266,276.577148 
	C538.055542,257.023499 538.124084,237.934280 538.192627,218.845062 
	C545.403625,224.684814 552.666687,230.461578 559.813721,236.378571 
	C571.464539,246.024155 582.982971,255.830246 594.669678,265.431732 
	C600.833496,270.495789 601.300354,271.229645 597.317566,278.226135 
	C585.795776,298.466431 574.328064,318.744965 562.326172,338.699921 
	C558.790649,344.578217 561.510315,349.757233 562.344604,354.965729 
	C565.751892,376.236481 569.814453,397.402618 573.670837,418.600861 
	C574.540344,423.380371 571.485352,425.151611 567.826050,426.484619 
	C556.265320,430.695892 544.691772,434.872131 533.129211,439.078522 
	C522.662842,442.886047 512.111572,446.487457 501.800964,450.679413 
	C498.855377,451.877075 495.791473,454.325409 494.186768,457.032928 
	C482.482758,476.780548 471.131104,496.737152 459.682220,516.635864 
	C456.016083,523.007874 454.498169,523.422058 447.704865,520.914185 
	C425.403748,512.681335 403.074005,504.524384 380.687012,496.529358 
	C378.868561,495.879944 376.358429,496.201141 374.461945,496.883453 
	C351.780029,505.044403 329.122253,513.275330 306.537109,521.699707 
	C301.623230,523.532593 299.061981,521.469055 296.835175,517.588928 
	C285.242157,497.388458 273.718750,477.146057 261.858246,457.103424 
	C260.253448,454.391510 257.223541,451.830750 254.279343,450.714569 
	C233.294601,442.759247 212.175385,435.156738 191.067474,427.529083 
	C181.884064,424.210510 181.448334,423.611206 183.169281,414.262115 
	C185.419388,402.038422 187.670486,389.814819 189.854507,377.579254 
	C190.114334,376.123657 189.956482,374.593475 190.317352,372.544922 
	C194.220581,369.836578 197.798706,367.681244 201.525085,365.939362 
	C198.865692,382.133820 196.114075,397.925140 193.203049,413.687042 
	C192.623138,416.826935 193.765564,418.093018 196.627762,419.093445 
	C206.486526,422.539368 216.222733,426.334290 226.060516,429.842346 
	C234.001495,432.673981 242.021759,435.283295 250.057114,438.144348 
	C250.206985,438.343048 250.306610,438.388672 250.406235,438.434265 
	C250.267349,438.292450 250.128448,438.150665 250.001450,437.643646 
	C249.771744,436.665436 249.602646,436.010864 249.278168,435.445435 
	C234.850876,410.305695 220.425110,385.165039 205.912292,360.074738 
	C205.357834,359.116119 203.947815,358.652374 202.822968,357.592590 
	C200.470078,353.221893 198.230682,349.216644 195.991272,345.211365 
M480.152130,458.872467 
	C478.384857,459.310638 476.561707,459.594421 474.858826,460.210632 
	C456.580841,466.824371 438.317566,473.479004 420.059418,480.147430 
	C411.232880,483.371185 402.425629,486.647675 392.465637,490.322327 
	C411.854919,497.373749 430.047485,504.075409 448.351868,510.456268 
	C449.584106,510.885834 452.345276,509.330261 453.227112,507.951019 
	C457.163513,501.794098 460.735870,495.399841 464.326935,489.027771 
	C469.946228,479.056763 475.474518,469.034424 481.349640,458.902802 
	C481.215881,458.915497 481.082123,458.928192 480.152130,458.872467 
M274.956207,458.604431 
	C274.837494,458.564850 274.718811,458.525299 274.600098,458.485718 
	C274.717224,458.670685 274.834320,458.855682 275.027771,459.750061 
	C284.287018,475.908844 293.576874,492.050293 302.775421,508.243561 
	C304.312775,510.949951 306.026093,511.333099 308.899078,510.237823 
	C317.905426,506.804230 327.033356,503.691162 336.091431,500.391418 
	C344.863708,497.195770 353.607788,493.922729 362.859406,490.500549 
	C361.805145,489.740112 361.456085,489.352783 361.023438,489.195679 
	C338.526855,481.026123 316.042633,472.821808 293.507385,464.760071 
	C287.440521,462.589691 281.216309,460.859070 274.956207,458.604431 
M338.693512,136.962692 
	C367.199890,136.962692 395.706238,136.962692 424.212616,136.962692 
	C424.357269,136.582001 424.501953,136.201294 424.646606,135.820602 
	C409.123199,122.793686 393.599792,109.766777 378.004059,96.679161 
	C362.081329,110.066559 346.698547,122.999954 331.315796,135.933350 
	C331.509094,136.276428 331.702393,136.619522 331.895660,136.962601 
	C333.852234,136.962601 335.808807,136.962601 338.693512,136.962692 
M551.226624,293.204559 
	C553.239075,304.211121 555.251587,315.217682 557.418091,327.066650 
	C558.471558,325.509369 559.134216,324.647156 559.674194,323.713959 
	C568.405212,308.626862 576.930420,293.415375 585.966858,278.513824 
	C588.373047,274.545929 587.628052,272.479034 584.458008,269.875916 
	C574.843750,261.981049 565.379028,253.904480 555.841370,245.916122 
	C551.177124,242.009506 546.480408,238.141647 540.879272,233.493515 
	C544.428589,253.974548 547.754089,273.164124 551.226624,293.204559 
M259.681549,183.175720 
	C273.672668,171.404861 287.663757,159.634018 302.385925,147.248138 
	C280.945465,147.248138 260.833282,147.248138 240.406845,147.248138 
	C236.880051,167.320084 233.392075,187.171097 229.667267,208.369934 
	C240.311539,199.408615 249.706635,191.498962 259.681549,183.175720 
z"/>
<path fill="#012B55" opacity="1.000000" stroke="none" 
	d="
M538.117310,218.395767 
	C538.124084,237.934280 538.055542,257.023499 538.018311,277.041534 
	C538.079956,305.324799 538.110291,332.679230 538.140686,360.033691 
	C537.409180,361.583893 536.677612,363.134064 535.098755,364.708008 
	C525.304749,364.731720 516.358093,364.731720 506.928497,364.731720 
	C506.928497,362.473907 506.928497,360.686981 506.928497,358.900055 
	C506.928497,310.310974 506.932281,261.721893 506.919312,213.132812 
	C506.918488,210.143112 506.785400,207.153442 506.803314,203.698868 
	C506.892792,200.190994 506.892792,197.148010 506.892792,194.143326 
	C502.416779,194.143326 498.650085,194.143326 494.428406,194.061432 
	C480.629608,193.979553 467.285828,193.979553 453.991974,193.979553 
	C453.991974,190.085861 453.991974,186.997971 453.991974,183.277176 
	C462.855042,183.277176 471.433716,183.277176 480.012390,183.277176 
	C485.105591,183.341156 490.198761,183.405121 496.071472,183.425049 
	C505.205292,183.315964 513.559570,183.250900 521.913879,183.185852 
	C525.030151,183.282349 528.146484,183.378845 531.632080,183.327148 
	C548.150635,183.290298 564.299927,183.405411 580.449158,183.509842 
	C583.778198,183.531357 587.107544,183.512970 590.802368,183.512970 
	C590.802368,186.904083 590.802368,190.129318 590.802368,193.764069 
	C573.447327,193.764069 556.023499,193.764069 538.041931,193.764069 
	C538.041931,202.078461 538.041931,210.012466 538.117310,218.395767 
z"/>
<path fill="#042D56" opacity="1.000000" stroke="none" 
	d="
M613.824463,188.197479 
	C613.915344,186.439209 614.006226,185.157837 614.110352,183.688248 
	C624.311707,183.688248 634.247742,183.688248 644.842651,183.688248 
	C644.842651,185.618484 644.842712,187.373352 644.842712,189.128204 
	C644.842712,238.758698 645.022827,288.390381 644.691772,338.018677 
	C644.624939,348.032318 650.308411,354.652039 661.147766,354.319519 
	C680.105530,353.737854 699.094116,354.157349 718.455811,354.157349 
	C718.455811,357.571777 718.455811,360.791931 718.455811,364.380463 
	C717.304260,364.483704 716.027649,364.696930 714.750854,364.697968 
	C690.435242,364.717773 666.119507,364.769470 641.804138,364.690369 
	C628.210938,364.646118 618.145569,357.530304 614.765198,345.436859 
	C613.889465,342.304108 613.864624,338.865723 613.861084,335.567261 
	C613.808105,286.603027 613.824463,237.638687 613.824463,188.197479 
z"/>
<path fill="#E70A39" opacity="1.000000" stroke="none" 
	d="
M197.624649,235.305023 
	C199.398972,237.824432 200.819733,240.216141 202.439514,243.245605 
	C202.572250,256.622711 194.711792,262.965729 182.189285,259.988678 
	C180.423355,258.376617 178.941116,256.745453 177.102066,255.835129 
	C175.671585,255.127045 173.796448,255.317230 172.118942,255.108185 
	C163.017593,257.760742 153.878250,260.294739 144.853226,263.185638 
	C143.393539,263.653198 141.772507,265.527130 141.362595,267.055786 
	C138.417053,278.039795 128.094620,282.032104 118.289116,275.984711 
	C116.954468,275.161591 114.496704,274.952057 113.110268,275.613678 
	C103.051949,280.413727 93.085152,285.415710 83.231377,290.622498 
	C81.864410,291.344788 80.615547,293.468872 80.440536,295.067566 
	C79.621986,302.544525 75.609825,307.718445 69.050056,309.061676 
	C62.490391,310.404877 56.011093,307.321106 53.123737,301.481689 
	C50.226307,295.621887 51.646645,288.374115 56.522556,284.138000 
	C61.504288,279.809937 68.472008,279.685638 74.642548,283.321075 
	C76.104164,284.182190 78.716759,284.359680 80.235222,283.647552 
	C89.876350,279.126129 99.326859,274.200317 108.915077,269.562622 
	C111.528900,268.298340 112.975220,266.976044 112.936928,263.675995 
	C112.868576,257.784790 116.148949,253.644211 121.454567,251.264862 
	C126.858376,248.841476 132.184845,249.606735 136.280304,253.651611 
	C139.158630,256.494415 141.637009,256.504456 145.054199,255.422134 
	C153.456436,252.760925 161.978775,250.478302 170.375015,247.799591 
	C171.772064,247.353882 173.489456,245.874863 173.852585,244.544189 
	C177.110306,232.606354 186.287247,228.852631 197.624649,235.305023 
M181.231934,248.608505 
	C182.865402,252.061417 185.584900,254.589279 189.344238,253.421906 
	C191.583084,252.726685 194.016830,250.257416 194.855820,248.020462 
	C196.104996,244.689850 194.551437,241.605499 190.354645,239.671021 
	C183.957779,238.930389 181.271957,241.346878 181.231934,248.608505 
M129.584061,271.185760 
	C133.910782,269.091583 135.293045,265.652252 133.392593,261.354736 
	C131.891159,257.959503 128.892715,256.424866 125.196548,257.567383 
	C121.380020,258.747131 119.600922,261.617523 120.098862,265.591888 
	C120.610847,269.678284 123.710434,271.648285 129.584061,271.185760 
M72.205353,298.434814 
	C73.862831,294.992462 73.537178,291.479248 70.317497,289.632477 
	C68.237610,288.439453 64.544609,288.045807 62.632187,289.140930 
	C60.726173,290.232391 59.224205,293.644958 59.265167,296.010040 
	C59.297958,297.903748 61.542400,300.426147 63.458576,301.467926 
	C66.528175,303.136749 69.583771,301.933197 72.205353,298.434814 
z"/>
<path fill="#E70C3A" opacity="1.000000" stroke="none" 
	d="
M201.376862,365.525909 
	C197.798706,367.681244 194.220581,369.836578 190.273636,372.120300 
	C180.230591,371.908844 176.196899,368.676971 173.881058,359.749237 
	C173.586746,358.614624 172.412994,357.189392 171.346649,356.854736 
	C161.663605,353.815765 151.937134,350.904907 142.153824,348.208893 
	C140.944244,347.875580 138.982437,348.628296 137.955856,349.539001 
	C130.836914,355.854767 123.583282,355.943756 116.485069,349.866547 
	C115.410133,348.946259 113.231056,348.440826 111.893181,348.842926 
	C102.494049,351.667999 93.135918,354.652527 83.886375,357.929626 
	C82.344086,358.476044 80.707489,360.522675 80.291725,362.172729 
	C78.607498,368.856964 73.736076,373.488739 67.150398,373.995636 
	C60.533680,374.504913 54.414589,370.530914 52.371620,364.397644 
	C50.273640,358.099182 52.555061,351.399689 58.064247,347.681030 
	C63.586548,343.953491 70.528313,344.220367 75.495674,349.075195 
	C77.997421,351.520264 80.080574,351.461945 82.976120,350.479279 
	C91.641571,347.538513 100.347748,344.709076 109.097809,342.031586 
	C111.651024,341.250336 112.667046,340.073792 113.089905,337.312164 
	C114.153549,330.365753 119.742340,325.802155 126.618767,325.582184 
	C133.639725,325.357574 139.701019,329.779846 141.035324,336.859863 
	C141.606964,339.892975 142.989822,340.983276 145.625504,341.718262 
	C154.280640,344.131927 162.921906,346.606720 171.501083,349.274780 
	C174.145676,350.097198 175.939484,350.176849 178.029663,347.822876 
	C182.850769,342.393372 189.043518,343.580963 195.568115,345.163757 
	C198.230682,349.216644 200.470078,353.221893 202.774460,357.986359 
	C202.351913,361.005676 201.864380,363.265778 201.376862,365.525909 
M132.328720,344.740082 
	C135.441132,339.196869 133.818954,333.548492 128.544586,333.223694 
	C126.081268,333.072021 122.790207,334.683655 121.094376,336.584534 
	C118.764885,339.195679 119.653343,342.636627 122.271164,345.050537 
	C125.255386,347.802307 128.533768,347.708130 132.328720,344.740082 
M60.562218,355.082001 
	C58.242924,358.364594 57.937916,362.004059 61.055344,364.486938 
	C62.901695,365.957520 66.670540,366.923492 68.506409,365.997650 
	C70.631966,364.925690 72.713867,361.577637 72.821472,359.130066 
	C73.079781,353.254944 67.068771,351.071472 60.562218,355.082001 
M185.303741,351.389709 
	C180.911514,354.679565 179.893539,357.807037 182.035950,361.429108 
	C183.941513,364.650665 188.124969,366.136566 191.051666,364.309784 
	C194.588196,362.102417 195.745407,358.771851 194.263840,354.821228 
	C192.812134,350.950256 189.641769,350.476318 185.303741,351.389709 
z"/>
<path fill="#E70B3A" opacity="1.000000" stroke="none" 
	d="
M202.788666,300.386230 
	C202.222641,303.017731 201.656647,305.649200 200.853271,308.914185 
	C197.583633,312.010803 194.551392,314.473999 191.519150,316.937164 
	C188.229019,316.363098 184.938873,315.789062 181.273987,315.219757 
	C178.925568,312.791626 177.051544,310.266663 174.929855,307.970551 
	C174.064255,307.033783 172.671570,306.035675 171.502060,306.015167 
	C162.350906,305.854950 153.192917,305.815063 144.044739,306.044373 
	C142.671722,306.078796 140.837463,307.397766 140.067627,308.647003 
	C134.679504,317.390320 125.659546,319.136383 117.473969,313.071228 
	C116.218292,312.140808 113.788139,311.705444 112.373497,312.255615 
	C102.770012,315.990448 93.240547,319.932800 83.828537,324.125427 
	C82.293617,324.809113 80.724213,326.934174 80.428001,328.614655 
	C79.203911,335.559204 74.552635,340.717438 67.922836,341.732788 
	C61.958317,342.646240 55.379025,338.961914 52.860413,333.297943 
	C50.190811,327.294403 51.913544,320.122620 56.981167,316.143158 
	C62.369709,311.911682 69.353638,311.692596 74.919571,316.251129 
	C77.326889,318.222748 79.119225,318.067474 81.611237,317.020691 
	C90.809258,313.157227 100.040222,309.368256 109.318817,305.703217 
	C111.788116,304.727814 112.764793,303.438110 112.962486,300.646576 
	C113.418297,294.210114 117.965683,289.425873 124.063431,288.144867 
	C130.117813,286.872955 136.541992,289.379181 139.407715,294.936066 
	C140.982574,297.989899 142.819122,298.801788 145.990891,298.714478 
	C153.807358,298.499420 161.632553,298.601532 170.231049,298.510376 
	C175.563034,298.774750 175.477921,294.686127 177.346329,292.026031 
	C189.068253,284.375122 198.543793,287.572968 202.788666,300.386230 
M181.316864,300.484161 
	C180.663605,305.045685 182.061111,308.192322 187.845703,309.090057 
	C192.262573,309.349854 194.685928,307.054260 195.158539,302.878418 
	C195.611725,298.874207 193.498322,296.060120 189.697571,295.256958 
	C185.971329,294.469604 182.875381,295.769623 181.316864,300.484161 
M73.042976,326.691528 
	C72.311440,322.555328 69.749710,319.595306 65.707962,320.381134 
	C63.224434,320.864044 60.359440,323.557800 59.256401,325.982452 
	C57.632767,329.551483 60.778000,333.636017 64.715530,334.387665 
	C68.951790,335.196350 71.783318,332.856750 73.042976,326.691528 
M129.688644,295.576111 
	C126.009773,294.199432 122.674248,295.243622 121.256195,298.597687 
	C120.323303,300.804230 120.359154,304.523438 121.677429,306.269531 
	C123.005013,308.027924 126.584885,309.090454 128.933990,308.754181 
	C130.803223,308.486572 133.028275,305.928650 133.804626,303.894775 
	C135.044678,300.646118 133.524139,297.741241 129.688644,295.576111 
z"/>
<path fill="#F6A9BA" opacity="1.000000" stroke="none" 
	d="
M177.012009,292.139404 
	C175.477921,294.686127 175.563034,298.774750 170.633865,298.351318 
	C165.958038,290.812103 161.769745,283.297089 157.301254,275.952606 
	C155.381241,272.796844 155.803711,270.440308 158.427414,268.102325 
	C162.960434,264.062958 167.437180,259.960449 172.028229,255.496307 
	C173.796448,255.317230 175.671585,255.127045 177.102066,255.835129 
	C178.941116,256.745453 180.423355,258.376617 181.939545,260.289185 
	C178.089081,264.175812 174.515045,267.675049 170.573334,270.694275 
	C167.884521,272.753784 167.599792,274.329193 169.379852,277.275543 
	C172.253052,282.031281 174.500351,287.165222 177.012009,292.139404 
z"/>
<path fill="#0D345C" opacity="1.000000" stroke="none" 
	d="
M644.205566,413.958527 
	C644.197998,416.757202 644.407227,419.119080 644.080017,421.404175 
	C643.942444,422.364807 642.670959,423.163116 641.914917,424.035217 
	C641.195984,423.285614 639.871460,422.550781 639.852783,421.784149 
	C639.686707,414.965271 639.643311,408.136871 639.886841,401.322845 
	C639.916931,400.481781 641.797119,399.092102 642.893311,399.016357 
	C646.534363,398.764801 650.465881,398.200714 653.795776,399.275391 
	C656.910217,400.280548 661.062134,402.750183 661.813721,405.407776 
	C663.304321,410.678558 662.848083,416.521118 662.956177,422.131989 
	C662.968201,422.756439 661.423279,423.410858 660.600464,424.051392 
	C659.897644,423.057770 658.675110,422.109192 658.584290,421.062500 
	C658.240173,417.094666 658.853638,412.949921 657.923340,409.162567 
	C657.377258,406.939453 654.838562,404.104431 652.748474,403.662598 
	C650.529724,403.193573 647.090332,404.598846 645.475342,406.365845 
	C644.099976,407.870544 644.558533,411.051392 644.205566,413.958527 
z"/>
<path fill="#10375E" opacity="1.000000" stroke="none" 
	d="
M695.489990,418.285126 
	C695.935425,419.587158 696.608887,421.479950 696.022278,422.030914 
	C692.346741,425.482941 684.144592,425.031006 679.842041,421.423737 
	C675.227417,417.554810 674.054810,410.595215 677.100952,405.155640 
	C679.919617,400.122406 686.226440,397.684540 691.619812,399.543488 
	C697.201477,401.467346 699.629761,405.960754 698.520935,413.258484 
	C692.633545,413.258484 686.614197,413.258484 680.423767,413.258484 
	C682.287964,420.537079 686.836060,421.871033 695.489990,418.285126 
M687.483643,409.741882 
	C689.869141,409.741882 692.254639,409.741882 694.976196,409.741882 
	C693.921570,404.698792 691.271362,402.733521 687.115723,402.991302 
	C683.292175,403.228485 680.819641,405.241516 679.893188,409.741821 
	C682.418579,409.741821 684.499146,409.741821 687.483643,409.741882 
z"/>
<path fill="#10385F" opacity="1.000000" stroke="none" 
	d="
M599.844238,419.427856 
	C602.304688,419.451416 604.333313,419.262207 606.274048,419.591309 
	C607.194336,419.747375 607.946838,420.893494 608.775330,421.591064 
	C607.925110,422.437012 607.101074,423.983307 606.220459,424.016235 
	C600.083679,424.245850 593.928162,424.310852 587.797546,424.024414 
	C586.830200,423.979187 585.189209,421.907349 585.163513,420.743774 
	C584.950989,411.113770 584.972412,401.475677 585.146362,391.844055 
	C585.166443,390.732086 586.551941,389.644836 587.304443,388.546143 
	C588.189514,389.716248 589.799744,390.861694 589.840515,392.060516 
	C590.083130,399.195343 589.962952,406.342499 589.964478,413.485535 
	C589.964844,415.260345 589.964539,417.035156 589.964539,419.427765 
	C593.501099,419.427765 596.438721,419.427765 599.844238,419.427856 
z"/>
<path fill="#10385F" opacity="1.000000" stroke="none" 
	d="
M620.247437,409.115509 
	C620.318848,406.316650 620.144836,403.947479 620.579041,401.695557 
	C620.759460,400.759552 622.237915,400.073853 623.126160,399.274323 
	C623.775818,400.125885 624.967285,400.964050 624.988708,401.831177 
	C625.149231,408.313171 625.169250,414.803497 624.980957,421.283936 
	C624.953125,422.241394 623.597717,423.160309 622.856567,424.097046 
	C622.000122,423.087006 620.493347,422.130768 620.404541,421.057220 
	C620.090149,417.257294 620.260681,413.417297 620.247437,409.115509 
z"/>
<path fill="#FEFEFE" opacity="1.000000" stroke="none" 
	d="
M479.919617,182.986877 
	C471.433716,183.277176 462.855042,183.277176 453.991974,183.277176 
	C453.991974,186.997971 453.991974,190.085861 453.991974,193.979553 
	C467.285828,193.979553 480.629608,193.979553 494.601837,194.347931 
	C499.058105,197.865463 502.885956,201.014618 506.713837,204.163757 
	C506.785400,207.153442 506.918488,210.143112 506.919312,213.132812 
	C506.932281,261.721893 506.928497,310.310974 506.928497,358.900055 
	C506.928497,360.686981 506.928497,362.473907 506.928497,364.731720 
	C516.358093,364.731720 525.304749,364.731720 534.736694,364.816772 
	C530.192200,374.031342 525.189758,383.176147 520.115051,392.280701 
	C518.669189,394.874847 517.013489,397.352020 514.750244,400.005615 
	C506.857025,397.625031 500.582916,399.662048 497.382233,405.538849 
	C494.048462,411.659973 496.223083,418.874329 502.804382,423.526642 
	C499.473358,428.838135 496.434906,434.368225 492.694763,439.374023 
	C490.652863,442.106903 487.774841,444.898926 484.674255,446.052063 
	C450.251923,458.854767 415.727936,471.385681 381.164520,483.803711 
	C379.102325,484.544586 376.264099,484.270538 374.133545,483.504669 
	C341.135803,471.642883 308.273376,459.398834 275.179382,447.815338 
	C268.125641,445.346375 263.929749,441.228760 260.391663,435.007202 
	C243.622849,405.519836 226.579575,376.187714 209.476318,346.892426 
	C207.184509,342.966858 206.216904,339.233063 207.041809,334.724579 
	C212.678482,303.916931 218.178848,273.084351 223.716110,242.258575 
	C224.155640,239.811737 224.914551,237.350830 224.885132,234.904160 
	C224.783630,226.464157 228.997208,220.864151 235.489349,215.924210 
	C244.471222,209.089798 252.892624,201.518829 261.990570,194.504608 
	C262.427094,251.295868 262.427094,307.845764 262.427094,364.307037 
	C266.421814,364.307037 269.483582,364.307037 273.053314,364.307037 
	C273.053314,320.409149 273.053314,276.911377 273.053314,232.280991 
	C274.184479,233.947845 274.638763,234.587234 275.062653,235.246185 
	C294.127808,264.883606 313.182495,294.527771 332.258942,324.157898 
	C336.556732,330.833282 343.100708,330.839081 347.175720,324.178558 
	C363.912689,296.822266 380.625519,269.451202 397.369049,242.098923 
	C397.870483,241.279770 398.613281,240.608383 400.080994,238.884491 
	C400.080994,281.621552 400.080994,323.012543 400.080994,364.389587 
	C410.417969,364.389587 420.329254,364.389587 430.384247,364.389587 
	C430.384247,304.033936 430.384247,243.998718 430.384247,183.482208 
	C428.107544,183.482208 426.100800,183.731766 424.179382,183.432846 
	C419.446320,182.696533 416.788544,184.608948 414.318573,188.756882 
	C401.652679,210.027283 388.628815,231.084732 375.707336,252.202698 
	C366.715973,266.897614 357.687988,281.570129 348.341187,296.798767 
	C323.933014,258.842255 299.850891,221.392776 275.768768,183.943283 
	C278.861176,180.806580 281.753235,177.436569 285.083435,174.576691 
	C295.280579,165.819611 305.604492,157.207809 315.999603,148.686493 
	C317.267670,147.646988 319.268494,147.018707 320.931702,147.014694 
	C359.031799,146.922745 397.132690,146.865570 435.231323,147.122742 
	C437.745575,147.139709 440.515442,149.379456 442.701935,151.156754 
	C454.161865,160.471970 465.483154,169.958115 476.816864,179.427689 
	C477.943878,180.369293 478.829315,181.600021 479.919617,182.986877 
M262.515045,391.522064 
	C262.502411,398.515991 262.484406,405.509888 262.479706,412.503815 
	C262.477783,415.334290 262.272736,418.195007 262.635834,420.979950 
	C262.776367,422.057983 264.233429,422.964417 265.090759,423.949005 
	C265.782410,422.965668 266.966156,422.031769 267.070801,420.989502 
	C267.352173,418.186462 267.173981,415.337158 267.175720,412.506226 
	C267.177460,409.716736 267.176117,406.927246 267.176117,404.137756 
	C267.783417,404.058685 268.390717,403.979584 268.998016,403.900482 
	C269.730103,405.091705 270.540924,406.242371 271.179657,407.481720 
	C273.158417,411.321167 274.958832,415.257568 277.067078,419.022736 
	C277.887512,420.487976 279.344604,421.596710 280.511688,422.867859 
	C281.657166,421.539734 283.080475,420.361420 283.893463,418.853973 
	C285.936707,415.065430 287.661438,411.106567 289.605743,407.262451 
	C290.275238,405.938812 291.216461,404.752594 292.033539,403.503601 
	C293.411011,405.297455 293.649139,406.702667 293.671112,408.111267 
	C293.728271,411.773987 293.472321,415.457062 293.787720,419.093323 
	C293.933563,420.774872 295.120331,422.366150 295.835144,423.998383 
	C296.659912,422.280304 298.146393,420.581573 298.197266,418.840912 
	C298.445099,410.355286 298.397949,401.856659 298.229980,393.367126 
	C298.198608,391.781982 297.138275,390.217163 296.552826,388.642975 
	C295.319733,389.752411 293.679230,390.639069 292.928223,392.012177 
	C290.460144,396.524902 288.339081,401.226318 286.036835,405.831329 
	C284.446594,409.012146 282.777283,412.153412 280.709015,416.151886 
	C279.147949,413.578217 278.028442,411.986084 277.165924,410.265137 
	C273.968597,403.885773 270.930389,397.425812 267.675201,391.076721 
	C266.361572,388.514557 264.610962,386.657745 262.515045,391.522064 
M478.656769,400.554535 
	C474.168945,400.202332 469.681091,399.850098 464.802094,399.467194 
	C464.802094,397.424591 464.993134,394.256012 464.685211,391.136658 
	C464.593292,390.205566 463.104431,389.412354 462.255585,388.556000 
	C461.495544,389.480530 460.089569,390.394836 460.074768,391.331146 
	C459.916901,401.299774 459.923370,411.272705 460.074066,421.241608 
	C460.088226,422.177612 461.393951,423.094086 462.100006,424.019653 
	C463.007416,423.097534 464.591217,422.247101 464.697998,421.240051 
	C465.046600,417.952332 464.834259,414.607178 464.878754,411.284668 
	C464.950897,405.895355 467.043030,403.336182 471.473602,403.157471 
	C475.745728,402.985199 478.710266,406.193237 478.873260,411.327454 
	C478.978668,414.647888 478.747894,417.987366 479.021912,421.288910 
	C479.101868,422.251953 480.275543,423.305664 481.210785,423.912659 
	C481.516510,424.111053 482.993164,423.202026 483.357147,422.500122 
	C485.625488,418.126617 483.065918,404.929779 478.656769,400.554535 
M391.375885,423.964142 
	C392.429901,423.478394 393.631775,423.171722 394.496826,422.457214 
	C395.386505,421.722412 395.947632,420.589813 396.652496,419.631287 
	C395.486664,419.381470 394.306152,418.884308 393.159241,418.952545 
	C392.049164,419.018616 390.999817,419.779236 389.878510,420.039459 
	C384.805542,421.216766 381.024475,418.855957 379.920624,413.356628 
	C384.967957,413.356628 389.915680,413.318237 394.862427,413.370911 
	C397.876129,413.402954 399.011993,412.256439 398.527557,409.082245 
	C397.308533,401.095551 390.116241,396.822632 382.631317,399.851654 
	C376.632843,402.279175 373.575684,408.420135 375.104462,414.971069 
	C376.614227,421.440430 382.444458,424.864044 391.375885,423.964142 
M432.639282,398.535980 
	C432.640625,405.850769 432.535217,413.168640 432.749023,420.477234 
	C432.784393,421.686676 434.215546,422.855316 435.001678,424.042816 
	C435.785858,422.827362 436.845581,421.700409 437.272797,420.370300 
	C437.660217,419.164093 437.360321,417.736603 437.360443,416.406647 
	C437.361023,408.786713 437.360748,401.166779 437.360748,392.872528 
	C440.212219,392.872528 442.712708,393.165161 445.096619,392.764496 
	C446.563385,392.517944 447.852081,391.212158 449.220764,390.382050 
	C447.905640,389.672668 446.612457,388.403381 445.271637,388.350891 
	C439.461914,388.123444 433.630402,388.074554 427.823395,388.332855 
	C425.330444,388.443787 420.849457,386.588348 420.891846,390.596161 
	C420.932861,394.481110 425.432465,392.826050 427.910278,392.747711 
	C431.632019,392.629974 433.239441,393.784668 432.639282,398.535980 
M320.659332,424.024261 
	C321.983154,424.133850 323.308167,424.349457 324.630646,424.334961 
	C330.887787,424.266510 335.302368,420.650604 336.679230,414.546051 
	C337.993896,408.717255 335.356842,402.961395 330.155121,400.305908 
	C323.962891,397.144684 316.104340,399.588440 313.015808,405.635651 
	C309.512207,412.495544 312.342468,419.919708 320.659332,424.024261 
M359.246643,399.145416 
	C357.694977,400.023010 356.143311,400.900604 355.125549,401.476227 
	C353.737823,400.571106 352.749420,399.926422 351.760986,399.281738 
	C351.111420,400.283600 349.927185,401.270966 349.899536,402.289703 
	C349.728363,408.600830 349.731445,414.921509 349.911713,421.232300 
	C349.938843,422.181030 351.197601,423.094574 351.886627,424.024414 
	C352.693512,423.061066 354.070282,422.166840 354.197052,421.121033 
	C354.534821,418.335236 354.340607,415.484161 354.346863,412.659058 
	C354.364716,404.586945 355.930054,403.048767 363.916046,403.104614 
	C364.956909,403.111908 366.000366,402.743408 367.304565,402.500122 
	C366.147766,397.801453 362.736786,399.208771 359.246643,399.145416 
z"/>
<path fill="#042D56" opacity="1.000000" stroke="none" 
	d="
M275.389343,183.881134 
	C299.850891,221.392776 323.933014,258.842255 348.341187,296.798767 
	C357.687988,281.570129 366.715973,266.897614 375.707336,252.202698 
	C388.628815,231.084732 401.652679,210.027283 414.318573,188.756882 
	C416.788544,184.608948 419.446320,182.696533 424.179382,183.432846 
	C426.100800,183.731766 428.107544,183.482208 430.384247,183.482208 
	C430.384247,243.998718 430.384247,304.033936 430.384247,364.389587 
	C420.329254,364.389587 410.417969,364.389587 400.080994,364.389587 
	C400.080994,323.012543 400.080994,281.621552 400.080994,238.884491 
	C398.613281,240.608383 397.870483,241.279770 397.369049,242.098923 
	C380.625519,269.451202 363.912689,296.822266 347.175720,324.178558 
	C343.100708,330.839081 336.556732,330.833282 332.258942,324.157898 
	C313.182495,294.527771 294.127808,264.883606 275.062653,235.246185 
	C274.638763,234.587234 274.184479,233.947845 273.053314,232.280991 
	C273.053314,276.911377 273.053314,320.409149 273.053314,364.307037 
	C269.483582,364.307037 266.421814,364.307037 262.427094,364.307037 
	C262.427094,307.845764 262.427094,251.295868 262.295898,194.348755 
	C262.328491,190.682922 262.492340,187.414291 262.672577,183.818985 
	C266.908722,183.818985 270.959290,183.818985 275.389343,183.881134 
z"/>
<path fill="#FFFEFE" opacity="1.000000" stroke="none" 
	d="
M338.229431,136.962646 
	C335.808807,136.962601 333.852234,136.962601 331.895660,136.962601 
	C331.702393,136.619522 331.509094,136.276428 331.315796,135.933350 
	C346.698547,122.999954 362.081329,110.066559 378.004059,96.679161 
	C393.599792,109.766777 409.123199,122.793686 424.646606,135.820602 
	C424.501953,136.201294 424.357269,136.582001 424.212616,136.962692 
	C395.706238,136.962692 367.199890,136.962692 338.229431,136.962646 
z"/>
<path fill="#FFFEFE" opacity="1.000000" stroke="none" 
	d="
M201.525085,365.939362 
	C201.864380,363.265778 202.351913,361.005676 202.887955,358.351807 
	C203.947815,358.652374 205.357834,359.116119 205.912292,360.074738 
	C220.425110,385.165039 234.850876,410.305695 249.278168,435.445435 
	C249.602646,436.010864 249.771744,436.665436 250.006470,437.639404 
	C249.999603,438.000336 250.006866,437.991211 250.006866,437.991211 
	C242.021759,435.283295 234.001495,432.673981 226.060516,429.842346 
	C216.222733,426.334290 206.486526,422.539368 196.627762,419.093445 
	C193.765564,418.093018 192.623138,416.826935 193.203049,413.687042 
	C196.114075,397.925140 198.865692,382.133820 201.525085,365.939362 
z"/>
<path fill="#FFFEFE" opacity="1.000000" stroke="none" 
	d="
M551.153137,292.779144 
	C547.754089,273.164124 544.428589,253.974548 540.879272,233.493515 
	C546.480408,238.141647 551.177124,242.009506 555.841370,245.916122 
	C565.379028,253.904480 574.843750,261.981049 584.458008,269.875916 
	C587.628052,272.479034 588.373047,274.545929 585.966858,278.513824 
	C576.930420,293.415375 568.405212,308.626862 559.674194,323.713959 
	C559.134216,324.647156 558.471558,325.509369 557.418091,327.066650 
	C555.251587,315.217682 553.239075,304.211121 551.153137,292.779144 
z"/>
<path fill="#FFFEFE" opacity="1.000000" stroke="none" 
	d="
M275.064331,458.926605 
	C281.216309,460.859070 287.440521,462.589691 293.507385,464.760071 
	C316.042633,472.821808 338.526855,481.026123 361.023438,489.195679 
	C361.456085,489.352783 361.805145,489.740112 362.859406,490.500549 
	C353.607788,493.922729 344.863708,497.195770 336.091431,500.391418 
	C327.033356,503.691162 317.905426,506.804230 308.899078,510.237823 
	C306.026093,511.333099 304.312775,510.949951 302.775421,508.243561 
	C293.576874,492.050293 284.287018,475.908844 275.019043,459.368042 
	C275.010284,458.986023 275.064331,458.926605 275.064331,458.926605 
z"/>
<path fill="#FFFEFE" opacity="1.000000" stroke="none" 
	d="
M481.041351,459.033844 
	C475.474518,469.034424 469.946228,479.056763 464.326935,489.027771 
	C460.735870,495.399841 457.163513,501.794098 453.227112,507.951019 
	C452.345276,509.330261 449.584106,510.885834 448.351868,510.456268 
	C430.047485,504.075409 411.854919,497.373749 392.465637,490.322327 
	C402.425629,486.647675 411.232880,483.371185 420.059418,480.147430 
	C438.317566,473.479004 456.580841,466.824371 474.858826,460.210632 
	C476.561707,459.594421 478.384857,459.310638 480.572327,458.931091 
	C480.992523,458.989716 481.041351,459.033844 481.041351,459.033844 
z"/>
<path fill="#FFFEFE" opacity="1.000000" stroke="none" 
	d="
M259.391663,183.382507 
	C249.706635,191.498962 240.311539,199.408615 229.667267,208.369934 
	C233.392075,187.171097 236.880051,167.320084 240.406845,147.248138 
	C260.833282,147.248138 280.945465,147.248138 302.385925,147.248138 
	C287.663757,159.634018 273.672668,171.404861 259.391663,183.382507 
z"/>
<path fill="#FFFEFE" opacity="1.000000" stroke="none" 
	d="
M521.909180,182.829742 
	C513.559570,183.250900 505.205292,183.315964 496.449829,183.272812 
	C482.205658,171.412140 468.362671,159.659668 453.771667,147.272156 
	C474.947052,147.272156 495.088867,147.272156 515.526611,147.272156 
	C517.671997,159.113419 519.788269,170.793533 521.909180,182.829742 
z"/>
<path fill="#FDFCFD" opacity="1.000000" stroke="none" 
	d="
M552.818420,421.841217 
	C539.520630,426.570374 526.225647,431.307312 512.922119,436.020325 
	C510.893646,436.738953 508.825836,437.346466 506.388092,438.002686 
	C506.000000,438.000000 505.997559,437.997559 505.997559,437.997559 
	C507.998596,433.883636 509.999603,429.769714 512.471436,425.176270 
	C521.201294,424.340240 521.202087,424.340240 521.199280,415.883606 
	C521.198608,413.915344 521.189941,411.947113 521.184937,409.978821 
	C531.225037,392.645996 541.265198,375.313141 551.305359,357.980286 
	C551.736572,358.014832 552.167786,358.049408 552.599060,358.083984 
	C553.712524,363.796204 554.897583,369.495636 555.924927,375.223328 
	C558.202332,387.921112 560.278809,400.656464 562.706787,413.324829 
	C563.417542,417.033173 562.259644,418.682709 558.247681,418.649811 
	C557.591858,400.617859 555.225586,398.266968 538.331177,398.905609 
	C537.998474,398.918182 537.534973,398.769196 537.352966,398.936035 
	C536.196594,399.996307 534.199219,401.076904 534.138367,402.237701 
	C533.816406,408.384369 533.878296,414.560425 534.082642,420.717133 
	C534.120789,421.868500 535.412415,422.978271 536.125732,424.107239 
	C537.034912,422.973206 538.591980,421.911591 538.728394,420.691132 
	C539.096375,417.400330 538.798950,414.040497 538.875854,410.710571 
	C538.987854,405.859283 541.231445,403.372223 545.559204,403.144287 
	C549.570862,402.933014 552.536682,405.673279 552.833862,410.362671 
	C553.075378,414.173218 552.841492,418.013885 552.818420,421.841217 
z"/>
<path fill="#FFFCFD" opacity="1.000000" stroke="none" 
	d="
M177.346329,292.026031 
	C174.500351,287.165222 172.253052,282.031281 169.379852,277.275543 
	C167.599792,274.329193 167.884521,272.753784 170.573334,270.694275 
	C174.515045,267.675049 178.089081,264.175812 182.069519,260.580597 
	C194.711792,262.965729 202.572250,256.622711 202.693710,243.463211 
	C206.534668,240.186844 210.320450,237.330658 215.385559,233.509262 
	C211.209717,256.495941 207.280533,278.124847 203.070007,300.069977 
	C198.543793,287.572968 189.068253,284.375122 177.346329,292.026031 
z"/>
<path fill="#FFFEFE" opacity="1.000000" stroke="none" 
	d="
M538.430542,359.858917 
	C538.110291,332.679230 538.079956,305.324799 538.103516,277.505951 
	C540.780579,291.331390 543.399353,305.622040 546.030090,319.910461 
	C546.630188,323.169495 546.892456,326.551605 547.960999,329.652771 
	C552.214172,341.996063 543.898193,350.329407 538.430542,359.858917 
z"/>
<path fill="#10375E" opacity="1.000000" stroke="none" 
	d="
M521.076538,409.625793 
	C521.189941,411.947113 521.198608,413.915344 521.199280,415.883606 
	C521.202087,424.340240 521.201294,424.340240 512.532959,424.817688 
	C509.259064,424.518555 506.394440,424.098541 503.167114,423.602600 
	C496.223083,418.874329 494.048462,411.659973 497.382233,405.538849 
	C500.582916,399.662048 506.857025,397.625031 514.451416,400.207520 
	C516.893677,403.282013 518.930969,406.277374 521.076538,409.625793 
M505.510223,419.569214 
	C509.974457,420.936920 513.805786,420.066376 515.790771,415.615906 
	C517.590881,411.579895 517.324036,407.632172 512.698792,404.300598 
	C507.639038,402.387543 503.195648,403.710358 501.316681,407.689148 
	C499.346100,411.861908 500.760986,416.246399 505.510223,419.569214 
z"/>
<path fill="#0D345C" opacity="1.000000" stroke="none" 
	d="
M552.979614,422.189026 
	C552.841492,418.013885 553.075378,414.173218 552.833862,410.362671 
	C552.536682,405.673279 549.570862,402.933014 545.559204,403.144287 
	C541.231445,403.372223 538.987854,405.859283 538.875854,410.710571 
	C538.798950,414.040497 539.096375,417.400330 538.728394,420.691132 
	C538.591980,421.911591 537.034912,422.973206 536.125732,424.107239 
	C535.412415,422.978271 534.120789,421.868500 534.082642,420.717133 
	C533.878296,414.560425 533.816406,408.384369 534.138367,402.237701 
	C534.199219,401.076904 536.196594,399.996307 537.352966,398.936035 
	C537.534973,398.769196 537.998474,398.918182 538.331177,398.905609 
	C555.225586,398.266968 557.591858,400.617859 557.851074,418.678406 
	C557.113586,424.664429 556.637573,425.001343 552.979614,422.189026 
z"/>
<path fill="#FEF4F6" opacity="1.000000" stroke="none" 
	d="
M191.872131,317.054230 
	C194.551392,314.473999 197.583633,312.010803 200.819397,309.281982 
	C200.486649,314.779053 199.950409,320.541779 199.414169,326.304474 
	C198.977142,326.399994 198.540115,326.495514 198.103088,326.591034 
	C196.143768,323.451111 194.184448,320.311218 191.872131,317.054230 
z"/>
<path fill="#FFFEFE" opacity="1.000000" stroke="none" 
	d="
M249.994583,438.004578 
	C250.128448,438.150665 250.267349,438.292450 250.406235,438.434265 
	C250.306610,438.388672 250.206985,438.343048 250.057114,438.144348 
	C250.006866,437.991211 249.999603,438.000336 249.994583,438.004578 
z"/>
<path fill="#FDFCFD" opacity="1.000000" stroke="none" 
	d="
M506.000793,438.001221 
	C505.892212,438.023407 505.782867,438.044403 505.835510,438.031464 
	C505.997559,437.997559 506.000000,438.000000 506.000793,438.001221 
z"/>
<path fill="#FFFEFE" opacity="1.000000" stroke="none" 
	d="
M274.980865,459.013336 
	C274.834320,458.855682 274.717224,458.670685 274.600098,458.485718 
	C274.718811,458.525299 274.837494,458.564850 275.010254,458.765503 
	C275.064331,458.926605 275.010284,458.986023 274.980865,459.013336 
z"/>
<path fill="#FFFEFE" opacity="1.000000" stroke="none" 
	d="
M480.970459,458.965332 
	C481.082123,458.928192 481.215881,458.915497 481.195496,458.968323 
	C481.041351,459.033844 480.992523,458.989716 480.970459,458.965332 
z"/>
<path fill="#F4ACBB" opacity="1.000000" stroke="none" 
	d="
M506.803314,203.698883 
	C502.885956,201.014618 499.058105,197.865463 495.056824,194.429825 
	C498.650085,194.143326 502.416779,194.143326 506.892792,194.143326 
	C506.892792,197.148010 506.892792,200.190994 506.803314,203.698883 
z"/>
<path fill="#FEF0F3" opacity="1.000000" stroke="none" 
	d="
M129.228882,271.317017 
	C123.710434,271.648285 120.610847,269.678284 120.098862,265.591888 
	C119.600922,261.617523 121.380020,258.747131 125.196548,257.567383 
	C128.892715,256.424866 131.891159,257.959503 133.392593,261.354736 
	C135.293045,265.652252 133.910782,269.091583 129.228882,271.317017 
z"/>
<path fill="#FEF0F3" opacity="1.000000" stroke="none" 
	d="
M72.009674,298.781982 
	C69.583771,301.933197 66.528175,303.136749 63.458576,301.467926 
	C61.542400,300.426147 59.297958,297.903748 59.265167,296.010040 
	C59.224205,293.644958 60.726173,290.232391 62.632187,289.140930 
	C64.544609,288.045807 68.237610,288.439453 70.317497,289.632477 
	C73.537178,291.479248 73.862831,294.992462 72.009674,298.781982 
z"/>
<path fill="#F5A3B5" opacity="1.000000" stroke="none" 
	d="
M190.972473,240.048889 
	C194.551437,241.605499 196.104996,244.689850 194.855820,248.020462 
	C194.016830,250.257416 191.583084,252.726685 189.344238,253.421906 
	C185.584900,254.589279 182.865402,252.061417 181.555359,248.259354 
	C184.910019,245.289764 187.941254,242.669327 190.972473,240.048889 
z"/>
<path fill="#FEF0F3" opacity="1.000000" stroke="none" 
	d="
M190.663559,239.859955 
	C187.941254,242.669327 184.910019,245.289764 181.536591,247.911453 
	C181.271957,241.346878 183.957779,238.930389 190.663559,239.859955 
z"/>
<path fill="#FEF4F6" opacity="1.000000" stroke="none" 
	d="
M132.046539,345.019318 
	C128.533768,347.708130 125.255386,347.802307 122.271164,345.050537 
	C119.653343,342.636627 118.764885,339.195679 121.094376,336.584534 
	C122.790207,334.683655 126.081268,333.072021 128.544586,333.223694 
	C133.818954,333.548492 135.441132,339.196869 132.046539,345.019318 
z"/>
<path fill="#FEF4F6" opacity="1.000000" stroke="none" 
	d="
M60.837479,354.781799 
	C67.068771,351.071472 73.079781,353.254944 72.821472,359.130066 
	C72.713867,361.577637 70.631966,364.925690 68.506409,365.997650 
	C66.670540,366.923492 62.901695,365.957520 61.055344,364.486938 
	C57.937916,362.004059 58.242924,358.364594 60.837479,354.781799 
z"/>
<path fill="#FEF0F3" opacity="1.000000" stroke="none" 
	d="
M185.681061,351.247192 
	C189.641769,350.476318 192.812134,350.950256 194.263840,354.821228 
	C195.745407,358.771851 194.588196,362.102417 191.051666,364.309784 
	C188.124969,366.136566 183.941513,364.650665 182.035950,361.429108 
	C179.893539,357.807037 180.911514,354.679565 185.681061,351.247192 
z"/>
<path fill="#FEF4F6" opacity="1.000000" stroke="none" 
	d="
M73.056892,327.087769 
	C71.783318,332.856750 68.951790,335.196350 64.715530,334.387665 
	C60.778000,333.636017 57.632767,329.551483 59.256401,325.982452 
	C60.359440,323.557800 63.224434,320.864044 65.707962,320.381134 
	C69.749710,319.595306 72.311440,322.555328 73.056892,327.087769 
z"/>
<path fill="#FEF4F6" opacity="1.000000" stroke="none" 
	d="
M130.041107,295.752014 
	C133.524139,297.741241 135.044678,300.646118 133.804626,303.894775 
	C133.028275,305.928650 130.803223,308.486572 128.933990,308.754181 
	C126.584885,309.090454 123.005013,308.027924 121.677429,306.269531 
	C120.359154,304.523438 120.323303,300.804230 121.256195,298.597687 
	C122.674248,295.243622 126.009773,294.199432 130.041107,295.752014 
z"/>
<path fill="#FEF4F6" opacity="1.000000" stroke="none" 
	d="
M181.856918,299.987396 
	C182.875381,295.769623 185.971329,294.469604 189.697571,295.256958 
	C193.498322,296.060120 195.611725,298.874207 195.158539,302.878418 
	C194.685928,307.054260 192.262573,309.349854 187.415588,308.619019 
	C185.275970,305.427795 183.566452,302.707581 181.856918,299.987396 
z"/>
<path fill="#F5A3B5" opacity="1.000000" stroke="none" 
	d="
M181.586884,300.235779 
	C183.566452,302.707581 185.275970,305.427795 187.033447,308.493713 
	C182.061111,308.192322 180.663605,305.045685 181.586884,300.235779 
z"/>
<path fill="#E4E8ED" opacity="1.000000" stroke="none" 
	d="
M687.031677,409.741852 
	C684.499146,409.741821 682.418579,409.741821 679.893188,409.741821 
	C680.819641,405.241516 683.292175,403.228485 687.115723,402.991302 
	C691.271362,402.733521 693.921570,404.698792 694.976196,409.741882 
	C692.254639,409.741882 689.869141,409.741882 687.031677,409.741852 
z"/>
<path fill="#052E57" opacity="1.000000" stroke="none" 
	d="
M262.587158,391.128540 
	C264.610962,386.657745 266.361572,388.514557 267.675201,391.076721 
	C270.930389,397.425812 273.968597,403.885773 277.165924,410.265137 
	C278.028442,411.986084 279.147949,413.578217 280.709015,416.151886 
	C282.777283,412.153412 284.446594,409.012146 286.036835,405.831329 
	C288.339081,401.226318 290.460144,396.524902 292.928223,392.012177 
	C293.679230,390.639069 295.319733,389.752411 296.552826,388.642975 
	C297.138275,390.217163 298.198608,391.781982 298.229980,393.367126 
	C298.397949,401.856659 298.445099,410.355286 298.197266,418.840912 
	C298.146393,420.581573 296.659912,422.280304 295.835144,423.998383 
	C295.120331,422.366150 293.933563,420.774872 293.787720,419.093323 
	C293.472321,415.457062 293.728271,411.773987 293.671112,408.111267 
	C293.649139,406.702667 293.411011,405.297455 292.033539,403.503601 
	C291.216461,404.752594 290.275238,405.938812 289.605743,407.262451 
	C287.661438,411.106567 285.936707,415.065430 283.893463,418.853973 
	C283.080475,420.361420 281.657166,421.539734 280.511688,422.867859 
	C279.344604,421.596710 277.887512,420.487976 277.067078,419.022736 
	C274.958832,415.257568 273.158417,411.321167 271.179657,407.481720 
	C270.540924,406.242371 269.730103,405.091705 268.998016,403.900482 
	C268.390717,403.979584 267.783417,404.058685 267.176117,404.137756 
	C267.176117,406.927246 267.177460,409.716736 267.175720,412.506226 
	C267.173981,415.337158 267.352173,418.186462 267.070801,420.989502 
	C266.966156,422.031769 265.782410,422.965668 265.090759,423.949005 
	C264.233429,422.964417 262.776367,422.057983 262.635834,420.979950 
	C262.272736,418.195007 262.477783,415.334290 262.479706,412.503815 
	C262.484406,405.509888 262.502411,398.515991 262.587158,391.128540 
z"/>
<path fill="#10385F" opacity="1.000000" stroke="none" 
	d="
M478.983887,400.762482 
	C483.065918,404.929779 485.625488,418.126617 483.357147,422.500122 
	C482.993164,423.202026 481.516510,424.111053 481.210785,423.912659 
	C480.275543,423.305664 479.101868,422.251953 479.021912,421.288910 
	C478.747894,417.987366 478.978668,414.647888 478.873260,411.327454 
	C478.710266,406.193237 475.745728,402.985199 471.473602,403.157471 
	C467.043030,403.336182 464.950897,405.895355 464.878754,411.284668 
	C464.834259,414.607178 465.046600,417.952332 464.697998,421.240051 
	C464.591217,422.247101 463.007416,423.097534 462.099976,424.019653 
	C461.393951,423.094086 460.088226,422.177612 460.074066,421.241608 
	C459.923370,411.272705 459.916901,401.299774 460.074768,391.331146 
	C460.089569,390.394836 461.495544,389.480530 462.255615,388.555969 
	C463.104431,389.412354 464.593292,390.205566 464.685211,391.136658 
	C464.993134,394.256012 464.802094,397.424591 464.802094,399.467194 
	C469.681091,399.850098 474.168945,400.202332 478.983887,400.762482 
z"/>
<path fill="#10375E" opacity="1.000000" stroke="none" 
	d="
M390.998901,424.023682 
	C382.444458,424.864044 376.614227,421.440430 375.104462,414.971069 
	C373.575684,408.420135 376.632843,402.279175 382.631317,399.851654 
	C390.116241,396.822632 397.308533,401.095551 398.527557,409.082245 
	C399.011993,412.256439 397.876129,413.402954 394.862427,413.370911 
	C389.915680,413.318237 384.967957,413.356628 379.920624,413.356628 
	C381.024475,418.855957 384.805542,421.216766 389.878510,420.039459 
	C390.999817,419.779236 392.049164,419.018616 393.159241,418.952545 
	C394.306152,418.884308 395.486664,419.381470 396.652496,419.631287 
	C395.947632,420.589813 395.386505,421.722412 394.496826,422.457214 
	C393.631775,423.171722 392.429901,423.478394 390.998901,424.023682 
M393.337646,406.473236 
	C391.284332,402.678375 387.844360,402.283783 384.332214,403.409241 
	C381.684723,404.257599 379.276306,405.956268 380.121338,409.741882 
	C383.553223,409.741882 386.867706,409.742004 390.182190,409.741730 
	C390.680145,409.741699 391.373993,409.948700 391.639465,409.699738 
	C392.441498,408.947571 393.077271,408.018097 393.337646,406.473236 
z"/>
<path fill="#10385F" opacity="1.000000" stroke="none" 
	d="
M432.639313,398.039124 
	C433.239441,393.784668 431.632019,392.629974 427.910278,392.747711 
	C425.432465,392.826050 420.932861,394.481110 420.891846,390.596161 
	C420.849457,386.588348 425.330444,388.443787 427.823395,388.332855 
	C433.630402,388.074554 439.461914,388.123444 445.271637,388.350891 
	C446.612457,388.403381 447.905640,389.672668 449.220764,390.382019 
	C447.852081,391.212158 446.563385,392.517944 445.096619,392.764496 
	C442.712708,393.165161 440.212219,392.872528 437.360748,392.872528 
	C437.360748,401.166779 437.361023,408.786713 437.360443,416.406647 
	C437.360321,417.736603 437.660217,419.164093 437.272797,420.370300 
	C436.845581,421.700409 435.785858,422.827362 435.001678,424.042816 
	C434.215546,422.855316 432.784393,421.686676 432.749023,420.477234 
	C432.535217,413.168640 432.640625,405.850769 432.639313,398.039124 
z"/>
<path fill="#10375E" opacity="1.000000" stroke="none" 
	d="
M320.297028,423.904480 
	C312.342468,419.919708 309.512207,412.495544 313.015808,405.635651 
	C316.104340,399.588440 323.962891,397.144684 330.155121,400.305908 
	C335.356842,402.961395 337.993896,408.717255 336.679230,414.546051 
	C335.302368,420.650604 330.887787,424.266510 324.630646,424.334961 
	C323.308167,424.349457 321.983154,424.133850 320.297028,423.904480 
M331.606720,415.603577 
	C333.039612,409.399261 331.957214,405.962067 327.942657,403.967987 
	C324.106964,402.062775 319.869232,403.267975 317.484772,406.942139 
	C315.090912,410.630798 316.025604,415.925568 319.534821,418.555206 
	C323.372314,421.430817 327.324524,420.678070 331.606720,415.603577 
z"/>
<path fill="#0D345C" opacity="1.000000" stroke="none" 
	d="
M359.648254,399.080017 
	C362.736786,399.208771 366.147766,397.801453 367.304565,402.500122 
	C366.000366,402.743408 364.956909,403.111908 363.916046,403.104614 
	C355.930054,403.048767 354.364716,404.586945 354.346863,412.659058 
	C354.340607,415.484161 354.534821,418.335236 354.197052,421.121033 
	C354.070282,422.166840 352.693512,423.061066 351.886627,424.024414 
	C351.197601,423.094574 349.938843,422.181030 349.911713,421.232300 
	C349.731445,414.921509 349.728363,408.600830 349.899536,402.289703 
	C349.927185,401.270966 351.111420,400.283600 351.760986,399.281738 
	C352.749420,399.926422 353.737823,400.571106 355.125549,401.476227 
	C356.143311,400.900604 357.694977,400.023010 359.648254,399.080017 
z"/>
<path fill="#F6F7F9" opacity="1.000000" stroke="none" 
	d="
M504.963196,418.989288 
	C500.760986,416.246399 499.346100,411.861908 501.316681,407.689148 
	C503.195648,403.710358 507.639038,402.387543 512.695801,404.921326 
	C510.116241,410.024475 507.539703,414.506897 504.963196,418.989288 
z"/>
<path fill="#F5A3B5" opacity="1.000000" stroke="none" 
	d="
M505.236694,419.279236 
	C507.539703,414.506897 510.116241,410.024475 512.866943,405.244232 
	C517.324036,407.632172 517.590881,411.579895 515.790771,415.615906 
	C513.805786,420.066376 509.974457,420.936920 505.236694,419.279236 
z"/>
<path fill="#E4E8ED" opacity="1.000000" stroke="none" 
	d="
M393.557739,406.815491 
	C393.077271,408.018097 392.441498,408.947571 391.639465,409.699738 
	C391.373993,409.948700 390.680145,409.741699 390.182190,409.741730 
	C386.867706,409.742004 383.553223,409.741882 380.121338,409.741882 
	C379.276306,405.956268 381.684723,404.257599 384.332214,403.409241 
	C387.844360,402.283783 391.284332,402.678375 393.557739,406.815491 
z"/>
<path fill="#F6F7F9" opacity="1.000000" stroke="none" 
	d="
M331.408875,415.967407 
	C327.324524,420.678070 323.372314,421.430817 319.534821,418.555206 
	C316.025604,415.925568 315.090912,410.630798 317.484772,406.942139 
	C319.869232,403.267975 324.106964,402.062775 327.942657,403.967987 
	C331.957214,405.962067 333.039612,409.399261 331.408875,415.967407 
z"/>
</svg>